<mxfile host="app.diagrams.net" modified="2021-01-28T11:43:11.488Z" agent="5.0 (Windows)" etag="2yCS80uVrUHymJvk6jMF" version="14.2.7" type="github">
  <diagram id="tZU8RH54jPB0YR1qd6gx" name="Page-1">
    <mxGraphModel dx="1038" dy="547" grid="1" gridSize="10" guides="1" tooltips="1" connect="1" arrows="1" fold="1" page="1" pageScale="1" pageWidth="1169" pageHeight="827" math="0" shadow="0">
      <root>
        <mxCell id="0" />
        <mxCell id="1" parent="0" />
        <mxCell id="y9bxsy1iOUCk4nZmsPaL-3" value="Problem identification for research development" style="swimlane;" vertex="1" parent="1">
          <mxGeometry x="10" y="10" width="1150" height="810" as="geometry" />
        </mxCell>
      </root>
    </mxGraphModel>
  </diagram>
</mxfile>
